<?xml version="1.0" encoding="utf-8"?>
<!-- Generator: Adobe Illustrator 16.2.1, SVG Export Plug-In . SVG Version: 6.00 Build 0)  -->
<!DOCTYPE svg PUBLIC "-//W3C//DTD SVG 1.1//EN" "http://www.w3.org/Graphics/SVG/1.1/DTD/svg11.dtd">
<svg version="1.1" id="Layer_1" xmlns="http://www.w3.org/2000/svg" xmlns:xlink="http://www.w3.org/1999/xlink" x="0px" y="0px"
	 width="32px" height="208px" viewBox="0 0 32 208" enable-background="new 0 0 32 208" xml:space="preserve">
<path fill="#FFFFFF" d="M15.121,161.344C14.785,161.117,14.395,161,14,161c-0.251,0-0.503,0.047-0.743,0.143l-5,2
	c-0.094,0.038-0.171,0.101-0.257,0.151c-0.086-0.05-0.163-0.113-0.257-0.151l-5-2C2.503,161.047,2.251,161,2,161
	c-0.394,0-0.786,0.117-1.121,0.344C0.329,161.716,0,162.336,0,163v9c0,0.817,0.498,1.554,1.257,1.857l5,2
	C6.497,175.953,6.749,176,7,176c0.35,0,0.691-0.106,1-0.286C8.309,175.894,8.65,176,9,176c0.251,0,0.503-0.047,0.743-0.143l5-2
	C15.502,173.554,16,172.817,16,172v-9C16,162.336,15.671,161.716,15.121,161.344z M7,174l-5-2v-9l5,2V174z M14,172l-5,2v-9l5-2V172z
	"/>
<path fill="#1C2222" d="M31.121,161.344C30.785,161.117,30.395,161,30,161c-0.251,0-0.503,0.047-0.743,0.143l-5,2
	c-0.094,0.038-0.171,0.101-0.257,0.151c-0.086-0.05-0.163-0.113-0.257-0.151l-5-2C18.503,161.047,18.251,161,18,161
	c-0.394,0-0.786,0.117-1.121,0.344C16.329,161.716,16,162.336,16,163v9c0,0.817,0.498,1.554,1.257,1.857l5,2
	C22.497,175.953,22.749,176,23,176c0.35,0,0.691-0.106,1-0.286c0.309,0.18,0.65,0.286,1,0.286c0.251,0,0.503-0.047,0.743-0.143l5-2
	C31.502,173.554,32,172.817,32,172v-9C32,162.336,31.671,161.716,31.121,161.344z M23,174l-5-2v-9l5,2V174z M30,172l-5,2v-9l5-2V172
	z"/>
<path fill="#FFFFFF" d="M1.451,140.913l11.46-11.461c0.453-0.452,1.187-0.452,1.639,0c0.452,0.452,0.452,1.185,0,1.636L3.088,142.55
	c-0.453,0.452-1.186,0.452-1.637,0C0.998,142.098,0.998,141.365,1.451,140.913z"/>
<path fill="#FFFFFF" d="M3.088,129.451l11.461,11.461c0.452,0.453,0.452,1.186,0,1.637c-0.452,0.452-1.186,0.452-1.639,0
	l-11.46-11.463c-0.453-0.452-0.453-1.186,0-1.638C1.903,128.999,2.635,128.999,3.088,129.451z"/>
<path fill="#FFFFFF" d="M8,160c-4.418,0-8-3.582-8-8s3.582-8,8-8s8,3.582,8,8S12.418,160,8,160z M8,146c-3.313,0-6,2.687-6,6
	c0,3.314,2.687,6,6,6c3.312,0,6-2.686,6-6C14,148.687,11.312,146,8,146z M8,157c-1.077,0-2.068-0.348-2.885-0.928
	C5.043,155.896,5,155.703,5,155.5l0,0c0.154-0.917,0.771-1.688,1.557-2.122C6.213,153.02,6,152.535,6,152v-1c0-1.104,0.896-2,2-2
	c1.104,0,2,0.896,2,2v1c0,0.535-0.213,1.02-0.557,1.378c0.785,0.435,1.402,1.205,1.557,2.122l0,0c0,0.203-0.043,0.396-0.115,0.572
	C10.068,156.652,9.077,157,8,157z"/>
<path fill="#1C2222" d="M24,160c-4.418,0-8-3.582-8-8s3.582-8,8-8s8,3.582,8,8S28.418,160,24,160z M24,146c-3.313,0-6,2.687-6,6
	c0,3.314,2.687,6,6,6c3.312,0,6-2.686,6-6C30,148.687,27.312,146,24,146z M24,157c-1.077,0-2.068-0.348-2.885-0.928
	C21.043,155.896,21,155.703,21,155.5l0,0c0.154-0.917,0.771-1.688,1.557-2.122C22.213,153.02,22,152.535,22,152v-1
	c0-1.104,0.896-2,2-2c1.104,0,2,0.896,2,2v1c0,0.535-0.213,1.02-0.557,1.378c0.785,0.435,1.402,1.205,1.557,2.122l0,0
	c0,0.203-0.043,0.396-0.115,0.572C26.068,156.652,25.077,157,24,157z"/>
<path fill="#FFFFFF" d="M3,125l10-5l-10-5V125z"/>
<path fill="#FFFFFF" d="M26,102c0,0-3.94-0.058-6.578,1.652C16.784,105.364,16,109,16,109s2.566-2.72,4.9-3.6
	c2.553-0.963,5.1-0.4,5.1-0.4v3l6-4l-6-5V102z"/>
<path fill="#FFFFFF" d="M20.365,78.615c0.383,0.388,1.003,0.388,1.387,0l5.885-5.964c0.383-0.388,0.383-1.017,0-1.405l-5.885-5.963
	c-0.191-0.194-0.442-0.292-0.693-0.292s-0.502,0.097-0.693,0.292c-0.384,0.388-0.384,1.017,0,1.405l5.191,5.261l-5.191,5.261
	C19.981,77.598,19.981,78.227,20.365,78.615z"/>
<path fill="#1C2222" d="M4.365,78.615c0.383,0.388,1.003,0.388,1.387,0l5.885-5.964c0.383-0.388,0.383-1.017,0-1.405l-5.885-5.963
	c-0.191-0.194-0.442-0.292-0.693-0.292s-0.502,0.097-0.693,0.292c-0.384,0.388-0.384,1.017,0,1.405l5.191,5.261l-5.191,5.261
	C3.981,77.598,3.981,78.227,4.365,78.615z"/>
<path fill="#FFFFFF" d="M27.724,81.293c-0.391-0.391-1.023-0.391-1.415,0l-6.002,6.004c-0.391,0.391-0.391,1.024,0,1.415
	l6.002,6.004c0.195,0.195,0.452,0.293,0.708,0.293s0.512-0.098,0.707-0.293c0.392-0.391,0.392-1.024,0-1.415l-5.294-5.296
	l5.294-5.296C28.115,82.317,28.115,81.684,27.724,81.293z"/>
<path fill="#1C2222" d="M11.724,81.293c-0.391-0.391-1.023-0.391-1.415,0l-6.002,6.004c-0.391,0.391-0.391,1.024,0,1.415
	l6.002,6.004c0.195,0.195,0.452,0.293,0.708,0.293s0.512-0.098,0.707-0.293c0.392-0.391,0.392-1.024,0-1.415l-5.294-5.296
	l5.294-5.296C12.115,82.317,12.115,81.684,11.724,81.293z"/>
<path fill="#FFFFFF" d="M29.432,37.141c1.421,0,2.573-1.152,2.573-2.573c0-1.42-1.152-2.572-2.573-2.572s-2.573,1.152-2.573,2.572
	c0,0.111,0.02,0.215,0.032,0.322l-6.521,3.277c-0.465-0.457-1.1-0.74-1.803-0.74c-1.42,0-2.572,1.152-2.572,2.572
	c0,1.421,1.152,2.574,2.572,2.574c0.718,0,1.366-0.296,1.833-0.771l6.493,3.287c-0.016,0.113-0.035,0.225-0.035,0.341
	c0,1.422,1.152,2.574,2.573,2.574s2.573-1.152,2.573-2.574c0-1.419-1.152-2.573-2.573-2.573c-0.726,0-1.379,0.305-1.846,0.788
	l-6.482-3.281c0.017-0.12,0.037-0.239,0.037-0.365c0-0.139-0.021-0.274-0.041-0.409l6.473-3.251
	C28.041,36.83,28.699,37.141,29.432,37.141z"/>
<path fill="#1C2222" d="M13.432,37.141c1.421,0,2.573-1.152,2.573-2.573c0-1.42-1.152-2.572-2.573-2.572s-2.573,1.152-2.573,2.572
	c0,0.111,0.02,0.215,0.032,0.322L4.37,38.167c-0.465-0.457-1.1-0.74-1.803-0.74c-1.42,0-2.572,1.152-2.572,2.572
	c0,1.421,1.152,2.574,2.572,2.574c0.718,0,1.366-0.296,1.833-0.771l6.493,3.287c-0.016,0.113-0.035,0.225-0.035,0.341
	c0,1.422,1.152,2.574,2.573,2.574s2.573-1.152,2.573-2.574c0-1.419-1.152-2.573-2.573-2.573c-0.726,0-1.379,0.305-1.846,0.788
	l-6.482-3.281c0.017-0.12,0.037-0.239,0.037-0.365c0-0.139-0.021-0.274-0.041-0.409l6.473-3.251
	C12.041,36.83,12.699,37.141,13.432,37.141z"/>
<path fill-rule="evenodd" clip-rule="evenodd" fill="#1C2222" d="M1,7h14c0.552,0,1,0.448,1,1s-0.448,1-1,1H1C0.448,9,0,8.552,0,8
	S0.448,7,1,7z"/>
<path fill-rule="evenodd" clip-rule="evenodd" fill="#1C2222" d="M1,12h14c0.552,0,1,0.448,1,1s-0.448,1-1,1H1c-0.552,0-1-0.448-1-1
	S0.448,12,1,12z"/>
<path fill-rule="evenodd" clip-rule="evenodd" fill="#1C2222" d="M1,2h14c0.552,0,1,0.448,1,1s-0.448,1-1,1H1C0.448,4,0,3.552,0,3
	S0.448,2,1,2z"/>
<path fill-rule="evenodd" clip-rule="evenodd" fill="#FFFFFF" d="M3,55h10c0.552,0,1,0.448,1,1s-0.448,1-1,1H3c-0.552,0-1-0.448-1-1
	S2.448,55,3,55z"/>
<path fill-rule="evenodd" clip-rule="evenodd" fill="#FFFFFF" d="M8,50c0.552,0,1,0.448,1,1v10c0,0.552-0.448,1-1,1s-1-0.448-1-1V51
	C7,50.448,7.448,50,8,50z"/>
<path fill-rule="evenodd" clip-rule="evenodd" fill="#FFFFFF" d="M32,56c0-4.418-3.582-8-8-8s-8,3.582-8,8s3.582,8,8,8
	S32,60.418,32,56z M18,56c0-3.313,2.687-6,6-6s6,2.687,6,6s-2.687,6-6,6S18,59.313,18,56z"/>
<path fill-rule="evenodd" clip-rule="evenodd" fill="#FFFFFF" d="M27.708,56.707c0.195-0.195,0.293-0.451,0.293-0.707
	s-0.098-0.512-0.293-0.707l-2-2c-0.286-0.286-0.717-0.371-1.091-0.217C24.244,53.23,24,53.596,24,54v1h-3c-0.553,0-1,0.447-1,1
	s0.447,1,1,1h3v1c0,0.404,0.244,0.77,0.617,0.924c0.375,0.154,0.805,0.068,1.091-0.217L27.708,56.707z"/>
<path fill-rule="evenodd" clip-rule="evenodd" fill="#1C2222" d="M1.438,28.917l11.481-11.481c0.453-0.453,1.188-0.453,1.641,0
	c0.453,0.453,0.453,1.187,0,1.64L3.078,30.558c-0.453,0.453-1.188,0.453-1.64,0C0.985,30.105,0.985,29.371,1.438,28.917z"/>
<path fill-rule="evenodd" clip-rule="evenodd" fill="#1C2222" d="M3.078,17.437L14.56,28.917c0.453,0.453,0.453,1.188,0,1.641
	s-1.188,0.453-1.641,0L1.438,19.077c-0.453-0.453-0.453-1.188,0-1.64C1.891,16.983,2.625,16.983,3.078,17.437z"/>
<path fill-rule="evenodd" clip-rule="evenodd" fill="#FFFFFF" d="M17,7h14c0.552,0,1,0.448,1,1s-0.448,1-1,1H17
	c-0.552,0-1-0.448-1-1S16.448,7,17,7z"/>
<path fill-rule="evenodd" clip-rule="evenodd" fill="#FFFFFF" d="M17,12h14c0.552,0,1,0.448,1,1s-0.448,1-1,1H17
	c-0.552,0-1-0.448-1-1S16.448,12,17,12z"/>
<path fill-rule="evenodd" clip-rule="evenodd" fill="#FFFFFF" d="M17,2h14c0.552,0,1,0.448,1,1s-0.448,1-1,1H17
	c-0.552,0-1-0.448-1-1S16.448,2,17,2z"/>
<path fill-rule="evenodd" clip-rule="evenodd" fill="#FFFFFF" d="M17,117h4v-4h-4V117z"/>
<path fill-rule="evenodd" clip-rule="evenodd" fill="#FFFFFF" d="M22,117h4v-4h-4V117z"/>
<path fill-rule="evenodd" clip-rule="evenodd" fill="#FFFFFF" d="M27,113v4h4v-4H27z"/>
<path fill-rule="evenodd" clip-rule="evenodd" fill="#FFFFFF" d="M27,122h4v-4h-4V122z"/>
<path fill-rule="evenodd" clip-rule="evenodd" fill="#FFFFFF" d="M27,127h4v-4h-4V127z"/>
<path fill-rule="evenodd" clip-rule="evenodd" fill="#FFFFFF" d="M22,127h4v-4h-4V127z"/>
<path fill-rule="evenodd" clip-rule="evenodd" fill="#FFFFFF" d="M17,127h4v-4h-4V127z"/>
<path fill-rule="evenodd" clip-rule="evenodd" fill="#FFFFFF" d="M17,122h4v-4h-4V122z"/>
<path fill-rule="evenodd" clip-rule="evenodd" fill="#FFFFFF" d="M22,122h4v-4h-4V122z"/>
<path fill-rule="evenodd" clip-rule="evenodd" fill="#1C2222" d="M17,133h4v-4h-4V133z"/>
<path fill-rule="evenodd" clip-rule="evenodd" fill="#1C2222" d="M22,133h4v-4h-4V133z"/>
<path fill-rule="evenodd" clip-rule="evenodd" fill="#1C2222" d="M27,129v4h4v-4H27z"/>
<path fill-rule="evenodd" clip-rule="evenodd" fill="#1C2222" d="M27,138h4v-4h-4V138z"/>
<path fill-rule="evenodd" clip-rule="evenodd" fill="#1C2222" d="M27,143h4v-4h-4V143z"/>
<path fill-rule="evenodd" clip-rule="evenodd" fill="#1C2222" d="M22,143h4v-4h-4V143z"/>
<path fill-rule="evenodd" clip-rule="evenodd" fill="#1C2222" d="M17,143h4v-4h-4V143z"/>
<path fill-rule="evenodd" clip-rule="evenodd" fill="#1C2222" d="M17,138h4v-4h-4V138z"/>
<path fill-rule="evenodd" clip-rule="evenodd" fill="#1C2222" d="M22,138h4v-4h-4V138z"/>
<path fill-rule="evenodd" clip-rule="evenodd" fill="#FFFFFF" d="M15,102v-5h-5l1.5,1.5L9,101l2,2l2.5-2.5L15,102z"/>
<path fill-rule="evenodd" clip-rule="evenodd" fill="#FFFFFF" d="M7,107l-2-2l-2.5,2.5L1,106v5h5l-1.5-1.5L7,107z"/>
<path fill-rule="evenodd" clip-rule="evenodd" fill="#1C2222" d="M23.631,26.826c-0.391,0.391-1.024,0.391-1.414,0l-2.122-2.121
	c-0.391-0.39-0.391-1.023,0-1.414s1.024-0.391,1.414,0l1.415,1.414l3.535-3.535c0.391-0.391,1.023-0.391,1.414,0
	c0.391,0.39,0.391,1.023,0,1.414L23.631,26.826z"/>
<path fill-rule="evenodd" clip-rule="evenodd" fill="#1C2222" d="M32,24c0-4.418-3.582-8-8-8s-8,3.582-8,8s3.582,8,8,8
	S32,28.418,32,24z M18,24c0-3.313,2.687-6,6-6s6,2.687,6,6s-2.687,6-6,6S18,27.313,18,24z"/>
<path fill-rule="evenodd" clip-rule="evenodd" fill="#1C2222" d="M24,192c-4.418,0-8-3.582-8-8s3.582-8,8-8s8,3.582,8,8
	S28.418,192,24,192z M24,178c-3.313,0-6,2.687-6,6s2.687,6,6,6s6-2.687,6-6S27.313,178,24,178z M26.829,186.829
	c-0.391,0.391-1.024,0.391-1.415,0L24,185.414l-1.414,1.415c-0.391,0.391-1.024,0.391-1.415,0c-0.39-0.391-0.39-1.024,0-1.415
	L22.586,184l-1.415-1.414c-0.39-0.391-0.39-1.024,0-1.415c0.391-0.39,1.024-0.39,1.415,0L24,182.586l1.414-1.415
	c0.391-0.39,1.024-0.39,1.415,0c0.391,0.391,0.391,1.024,0,1.415L25.414,184l1.415,1.414
	C27.219,185.805,27.219,186.438,26.829,186.829z"/>
<path fill-rule="evenodd" clip-rule="evenodd" fill="#FFFFFF" d="M15,190H1c-0.552,0-1-0.448-1-1v-8h16v8
	C16,189.552,15.552,190,15,190z M8.757,183.351C8.386,183.133,7.96,183,7.5,183c-1.381,0-2.5,1.119-2.5,2.5s1.119,2.5,2.5,2.5
	c0.46,0,0.886-0.133,1.257-0.351C8.29,187.055,8,186.315,8,185.5S8.29,183.945,8.757,183.351z M11.5,183c-1.381,0-2.5,1.119-2.5,2.5
	s1.119,2.5,2.5,2.5s2.5-1.119,2.5-2.5S12.881,183,11.5,183z M0,179c0-0.552,0.448-1,1-1h14c0.552,0,1,0.448,1,1v1H0V179z"/>
<path fill-rule="evenodd" clip-rule="evenodd" fill="#1C2222" d="M31,206H17c-0.552,0-1-0.448-1-1v-8h16v8
	C32,205.552,31.552,206,31,206z M24.757,199.351C24.386,199.133,23.96,199,23.5,199c-1.381,0-2.5,1.119-2.5,2.5s1.119,2.5,2.5,2.5
	c0.46,0,0.886-0.133,1.257-0.351C24.29,203.055,24,202.315,24,201.5S24.29,199.945,24.757,199.351z M27.5,199
	c-1.381,0-2.5,1.119-2.5,2.5s1.119,2.5,2.5,2.5s2.5-1.119,2.5-2.5S28.881,199,27.5,199z M16,195c0-0.552,0.448-1,1-1h14
	c0.552,0,1,0.448,1,1v1H16V195z"/>
</svg>
